HIERARCHY
ROOT Hips
{
	OFFSET -3.958830 18.904000 13.208200
	CHANNELS 6 Xposition Yposition Zposition Zrotation Yrotation Xrotation 
	JOINT LHipJoint
	{
		OFFSET 0.000000 0.000000 0.000000
		CHANNELS 3 Zrotation Yrotation Xrotation
		JOINT LeftUpLeg
		{
			OFFSET 1.800000 -1.400000 0.085000
			CHANNELS 3 Zrotation Yrotation Xrotation
			JOINT LeftLeg
			{
				OFFSET 2.215000 -6.000000 0.000000
				CHANNELS 3 Zrotation Yrotation Xrotation
				JOINT LeftFoot
				{
					OFFSET 2.500000 -6.900000 0.000000
					CHANNELS 3 Zrotation Yrotation Xrotation
					JOINT LeftToeBase
					{
						OFFSET 0.200000 -0.500000 1.950000
						CHANNELS 3 Zrotation Yrotation Xrotation
						End Site
						{
							OFFSET 0.000000 0.000000 0.000000
						}
					}
				}
			}
		}
	}
	JOINT RHipJoint
	{
		OFFSET 0.000000 0.000000 0.000000
		CHANNELS 3 Zrotation Yrotation Xrotation
		JOINT RightUpLeg
		{
			OFFSET -1.800000 -1.400000 0.085000
			CHANNELS 3 Zrotation Yrotation Xrotation
			JOINT RightLeg
			{
				OFFSET -2.215000 -6.000000 0.000000
				CHANNELS 3 Zrotation Yrotation Xrotation
				JOINT RightFoot
				{
					OFFSET -2.500000 -6.900000 0.000000
					CHANNELS 3 Zrotation Yrotation Xrotation
					JOINT RightToeBase
					{
						OFFSET -0.200000 -0.500000 1.950000
						CHANNELS 3 Zrotation Yrotation Xrotation
						End Site
						{
							OFFSET 0.000000 0.000000 0.000000
						}
					}
				}
			}
		}
	}
	JOINT LowerBack
	{
		OFFSET 0.000000 0.000000 0.000000
		CHANNELS 3 Zrotation Yrotation Xrotation
		JOINT Spine
		{
			OFFSET -0.087000 1.940000 -0.288900
			CHANNELS 3 Zrotation Yrotation Xrotation
			JOINT Spine1
			{
				OFFSET 0.000000 1.950000 0.060000
				CHANNELS 3 Zrotation Yrotation Xrotation
				JOINT Neck
				{
					OFFSET 0.000000 0.000000 0.000000
					CHANNELS 3 Zrotation Yrotation Xrotation
					JOINT Neck1
					{
						OFFSET 0.000000 1.600000 0.340000
						CHANNELS 3 Zrotation Yrotation Xrotation
						JOINT Head
						{
							OFFSET 0.000000 1.667000 -0.240000
							CHANNELS 3 Zrotation Yrotation Xrotation
							End Site
							{
								OFFSET 0.000000 0.000000 0.000000
							}
						}
					}
				}
				JOINT LeftShoulder
				{
					OFFSET 0.000000 0.000000 0.000000
					CHANNELS 3 Zrotation Yrotation Xrotation
					JOINT LeftArm
					{
						OFFSET 2.700000 1.550000 -0.730000
						CHANNELS 3 Zrotation Yrotation Xrotation
						JOINT LeftForeArm
						{
							OFFSET 5.450000 0.000000 0.000000
							CHANNELS 3 Zrotation Yrotation Xrotation
							JOINT LeftHand
							{
								OFFSET 3.450000 0.000000 0.000000
								CHANNELS 3 Zrotation Yrotation Xrotation
								JOINT LeftHandIndex1
								{
									OFFSET 0.750000 0.000000 0.000000
									CHANNELS 3 Zrotation Yrotation Xrotation
									End Site
									{
										OFFSET 0.000000 0.000000 0.000000
									}
								}
							}
						}
					}
				}
				JOINT RightShoulder
				{
					OFFSET 0.000000 0.000000 0.000000
					CHANNELS 3 Zrotation Yrotation Xrotation
					JOINT RightArm
					{
						OFFSET -2.700000 1.550000 -0.730000
						CHANNELS 3 Zrotation Yrotation Xrotation
						JOINT RightForeArm
						{
							OFFSET -5.450000 0.000000 0.000000
							CHANNELS 3 Zrotation Yrotation Xrotation
							JOINT RightHand
							{
								OFFSET -3.450000 0.000000 0.000000
								CHANNELS 3 Zrotation Yrotation Xrotation
								JOINT RightHandIndex1
								{
									OFFSET -0.750000 0.000000 0.000000
									CHANNELS 3 Zrotation Yrotation Xrotation
									End Site
									{
										OFFSET 0.000000 0.000000 0.000000
									}
								}
							}
						}
					}
				}
			}
		}
	}
}
MOTION
Frames: 7
Frame Time: 0.016667
0.530670 17.584090 -1.418740 -0.868363 -35.055284 1.893497 -15.333697 13.683168 2.690240 4.084828 -0.633092 -8.489092 -7.878590 6.072896 10.742690 0.102970 4.707051 3.459881 -0.268720 -0.466960 -0.476540 18.174343 -10.393060 2.503565 -9.215902 1.609581 -26.828183 1.847887 -3.251263 11.985390 0.531283 -2.871517 3.617318 -0.126120 1.196270 0.387430 -3.078404 -2.904797 -6.216731 3.632857 -4.544987 0.521766 -1.085345 -4.956443 6.078415 0.499978 -2.234548 -4.921626 -4.292356 9.613934 21.270866 -1.215580 8.332890 15.069360 -11.784302 13.229510 1.779993 -57.891513 2.005122 -12.009165 41.728438 -73.490848 -30.946805 -4.107455 2.975424 -0.415680 0.926410 -0.694590 0.403600 11.597423 -12.914140 1.428509 61.120801 -8.858634 -18.940537 -4.754534 83.003584 -8.241794 1.620792 -2.365377 -0.264270 0.064840 0.145200 0.239800 
0.524430 17.582350 -1.416870 -0.913560 -34.935812 1.980064 -15.330962 13.682886 2.686608 4.138880 -0.650665 -8.559484 -7.835890 6.060562 10.762944 0.104891 4.702370 3.461601 -0.269710 -0.468150 -0.482220 18.176168 -10.390858 2.509114 -9.170850 1.613399 -26.728568 1.868225 -3.226579 11.738714 0.531200 -2.866655 3.621609 -0.128300 1.200490 0.393050 -3.086133 -2.905416 -6.221446 3.741148 -4.580391 0.527693 -1.117082 -5.000032 6.031598 0.504663 -2.233123 -4.951490 -4.290065 9.590220 21.205718 -1.180190 8.301500 15.158100 -11.561609 13.328395 1.831341 -58.252995 1.654798 -11.979383 48.244953 -73.774666 -35.369073 -4.067888 2.762483 -0.418600 0.929550 -0.695140 0.407250 11.362320 -13.045533 1.468367 61.436697 -8.785525 -19.546524 -12.239794 84.547260 -14.462646 1.568294 -2.251690 -0.260870 0.061500 0.146070 0.243530 
0.511630 17.579050 -1.414790 -0.938221 -34.903346 2.097981 -15.328517 13.677615 2.684273 4.197369 -0.658714 -8.587063 -7.812655 6.036066 10.657389 0.102048 4.695090 3.466634 -0.274600 -0.473680 -0.489550 18.178591 -10.381564 2.520903 -9.060954 1.631203 -26.565018 1.860481 -3.158619 11.230180 0.534885 -2.845876 3.638243 -0.131550 1.207890 0.391230 -3.097845 -2.907584 -6.237081 3.857645 -4.582311 0.565709 -1.089736 -5.017067 5.850429 0.477689 -2.248067 -4.964512 -4.345398 9.536803 21.158993 -1.130880 8.243510 15.273100 -11.118458 13.521245 1.940814 -58.996229 0.907949 -11.378867 61.935600 -73.169284 -44.075811 -3.980091 2.189350 -0.418830 0.932880 -0.699680 0.409520 10.965876 -13.285819 1.508133 61.905451 -8.442763 -21.649228 -35.707040 87.348259 -34.271293 1.364221 -1.556352 -0.263840 0.066170 0.149910 0.244950 
0.496410 17.573270 -1.412430 -0.970467 -35.028029 2.218640 -15.339252 13.710113 2.685840 4.299680 -0.664193 -8.632883 -7.812761 6.040713 10.652445 0.098226 4.696835 3.460622 -0.271000 -0.466830 -0.493900 18.167926 -10.338354 2.526873 -8.960785 1.641299 -26.222448 1.860689 -3.056556 10.474694 0.530973 -2.805004 3.657968 -0.128890 1.203790 0.385840 -3.064606 -3.033620 -6.250296 3.987734 -4.720668 0.735236 -1.318968 -5.173542 5.351481 0.746009 -2.508217 -4.843083 -4.844346 9.640507 21.183416 -0.935490 8.125980 15.185040 -10.425162 14.001599 2.058805 -59.842655 -0.078929 -8.582540 79.279224 -68.788538 -54.161091 -3.994921 1.612470 -0.406290 0.922280 -0.691990 0.412530 9.822061 -13.734448 0.978431 62.749032 -7.618881 -19.515934 -85.745295 83.980215 -69.629909 0.458821 4.267833 -0.265750 0.074440 0.151200 0.246050 
0.477080 17.563620 -1.409470 -1.064925 -35.060198 2.466353 -15.326943 13.672237 2.669939 4.495504 -0.691981 -8.682538 -7.896908 6.041699 10.582598 0.088143 4.701754 3.460660 -0.258030 -0.442890 -0.503440 18.181280 -10.345791 2.544457 -8.809339 1.676170 -25.922847 1.904900 -2.953167 9.672479 0.527248 -2.792128 3.669483 -0.108930 1.218160 0.382970 -3.118797 -2.934605 -6.222594 4.441865 -4.662518 0.531313 -1.120641 -5.084898 5.297460 0.312820 -2.696064 -4.724484 -5.177707 9.724393 20.863091 -0.564330 7.872160 15.001800 -10.693100 13.429645 2.159744 -60.419187 -1.832997 -4.906832 91.956923 -61.221549 -61.282843 -4.276862 1.986292 -0.411000 0.925510 -0.696140 0.424380 10.859953 -12.883294 1.017584 62.151170 -7.758300 -8.710424 -109.576813 66.377764 -89.562987 2.001780 0.226498 -0.267600 0.091530 0.151540 0.255380 
0.456080 17.553120 -1.407930 -1.014103 -35.161494 2.568603 -15.324120 13.670853 2.671975 4.587157 -0.688976 -8.663395 -7.984397 6.054834 10.524602 0.072075 4.713487 3.453579 -0.242960 -0.417620 -0.504340 18.183617 -10.328291 2.556141 -8.709642 1.693500 -25.578582 1.851128 -2.842619 8.930375 0.520293 -2.771544 3.681857 -0.088140 1.221830 0.376810 -3.133196 -2.953841 -6.232033 4.715071 -4.660568 0.592021 -1.302621 -5.069039 5.233478 0.213330 -2.882414 -4.868018 -5.470219 9.728358 20.848964 -0.296720 7.751990 14.730240 -10.667124 13.059864 2.007174 -60.406078 -4.206022 -2.359370 99.770785 -54.600354 -64.492680 -4.427844 2.488757 -0.403130 0.922900 -0.692390 0.431500 10.975032 -12.408948 0.840584 62.135239 -6.443082 -8.311598 -117.453151 60.182473 -95.630965 2.053411 -1.298491 -0.273290 0.110260 0.151030 0.256680 
0.434580 17.542530 -1.405950 -0.960325 -35.272894 2.601399 -15.318699 13.663314 2.680082 4.710467 -0.681458 -8.578119 -8.183817 6.087479 10.412661 0.048363 4.751298 3.436851 -0.220250 -0.392080 -0.496150 18.188271 -10.310640 2.568472 -8.609255 1.716132 -25.143253 1.768588 -2.727586 8.157103 0.507706 -2.763893 3.680556 -0.062720 1.226420 0.381340 -3.157600 -2.972000 -6.257498 5.050993 -4.658748 0.703115 -1.489027 -5.071962 5.239722 0.061208 -3.108892 -5.010123 -5.876409 9.734453 20.949507 -0.122150 7.597960 14.415570 -10.366730 12.571622 1.922283 -59.797267 -7.064721 -0.096803 105.013370 -48.766024 -64.597265 -4.476821 2.817859 -0.391850 0.922960 -0.687790 0.438360 10.926437 -11.798141 0.657024 61.518868 -4.639636 -7.545908 -123.182973 54.190962 -96.087828 1.971589 -1.850935 -0.279210 0.125820 0.152270 0.254330 
